<svg xmlns="https://www.w3.org/2000/svg" viewBox="0 0 732.64 732.64"><title>Asset 1</title><g id="Layer_2" data-name="Layer 2"><g id="Layer_1-2" data-name="Layer 1"><path d="M366.72,442.45a185.86,185.86,0,0,1,9.47-37.74c10.7-29.31,27.71-53.94,46.41-74.11-36-98.06-149.07-134.49-213.92-164-8.62-3.93-10.59-3.51-13.07,3C168,242,109.91,499.33,375.39,568.61c0-.51-10.19-159.31-100.75-273.34C321.13,338.21,349.51,393.75,366.72,442.45Z" style="fill:#00a651"/><path d="M534,276.21c-1.93-6.51-3-7.34-7.57-5.36C476.13,292.84,316,392,402.09,566.48c.25-.28,77.94-85.64,95.46-190.72-2,104.4-80.33,192.52-80.62,192.85C623.18,496.51,556.37,351.93,534,276.21Z" style="fill:#00a651"/><path d="M366.32,732.64A366.41,366.41,0,0,1,223.72,28.8a366.41,366.41,0,0,1,285.2,675A364.06,364.06,0,0,1,366.32,732.64Zm0-670.66C198.51,62,62,198.51,62,366.32S198.51,670.66,366.32,670.66,670.66,534.13,670.66,366.32,534.13,62,366.32,62Z" style="fill:#00a651"/></g></g></svg>