<svg xmlns="http://www.w3.org/2000/svg" height="18" viewBox="0 0 18 18" width="18">
  <defs>
    <style>
      .a {
        fill: #6E6E6E;
      }
    </style>
  </defs>
  <title>S Deselect 18 N</title>
  <rect id="Canvas" fill="#ff13dc" opacity="0" width="18" height="18" /><rect class="a" height="3" width="1" x="2" y="9" />
  <path class="a" d="M3,15V14H2v1.5555A.4445.4445,0,0,0,2.4445,16H4V15Z" />
  <rect class="a" height="1" width="3" x="6" y="15" />
  <rect class="a" height="3" width="1" x="15" y="6" />
  <path class="a" d="M15.5555,2H14V3h1V4h1V2.4445A.4445.4445,0,0,0,15.5555,2Z" />
  <rect class="a" height="1" width="3" x="9" y="2" />
  <rect class="a" height="21.927" rx="0.409" transform="translate(-3.72777 9.00002) rotate(-45)" width="1.2275" x="8.38635" y="-1.96368" />
  <polygon class="a" points="16 13.719 16 11 15 11 15 12.719 16 13.719" />
  <polygon class="a" points="12.718 15 11 15 11 16 13.718 16 12.718 15" />
  <polygon class="a" points="2 4.281 2 7 3 7 3 5.281 2 4.281" />
  <polygon class="a" points="5.281 3 7 3 7 2 4.281 2 5.281 3" />
</svg>