<svg xmlns="http://www.w3.org/2000/svg" height="18" viewBox="0 0 18 18" width="18">
  <defs>
    <style>
      .a {
        fill: #6E6E6E;
      }
    </style>
  </defs>
  <title>S Hammer 18 N</title>
  <rect id="Canvas" fill="#ff13dc" opacity="0" width="18" height="18" /><path class="a" d="M5.7955,2.033l-2.54,2.54a.7275.7275,0,0,0-.00266,1.02884l.00266.00266.172.165-.755.7865a.484.484,0,0,0-.68373-.03207L1.9765,6.5355l-.775.775a.36351.36351,0,0,0-.00093.51407l.00093.00093L3.256,9.8795a.363.363,0,0,0,.51336.00114L3.7705,9.8795l.775-.775c.2845-.284-.0115-.687-.0115-.687L5.331,7.65a.7285.7285,0,0,0,1.023-.0065L6.787,7.21l8.4345,8.4345a.7275.7275,0,0,0,1.02884.00066l.00066-.00066.683-.683a.7275.7275,0,0,0,.00066-1.02884L16.934,13.932,8.5,5.5l.2825-.2825a.728.728,0,0,0,0-1.029l-.342-.342s1.006-1.1285,1.217-1.34c.8885-.8885,2.8555-.3155,2.9465-.7705S8.236-.4075,5.7955,2.033Z" />
</svg>