<svg xmlns="http://www.w3.org/2000/svg" height="18" viewBox="0 0 18 18" width="18">
  <defs>
    <style>
      .a {
        fill: #6E6E6E;
      }
    </style>
  </defs>
  <title>S PropertiesCopy 18 N</title>
  <rect id="Canvas" fill="#ff13dc" opacity="0" width="18" height="18" /><path class="a" d="M13.5,9A4.5,4.5,0,1,0,18,13.5,4.5,4.5,0,0,0,13.5,9Zm2.45,5.25h-1.7v1.7a.25.25,0,0,1-.25.25H13a.25.25,0,0,1-.25-.25v-1.7h-1.7A.25.25,0,0,1,10.8,14V13a.25.25,0,0,1,.25-.25h1.7v-1.7A.25.25,0,0,1,13,10.8h1a.25.25,0,0,1,.25.25v1.7h1.7a.25.25,0,0,1,.25.25v1A.25.25,0,0,1,15.95,14.25Z" />
  <path class="a" d="M1,8.75v-.5A.25.25,0,0,1,1.25,8h7.8a2.5,2.5,0,0,1,4.9,0s-.2795-.0035-.45,0a5.61069,5.61069,0,0,0-.5825.0305A1.495,1.495,0,1,0,10.15,9.1415a5.55206,5.55206,0,0,0-.753.7A2.48248,2.48248,0,0,1,9.05,9H1.25A.25.25,0,0,1,1,8.75Zm0-5v-.5A.25.25,0,0,1,1.25,3h1.8a2.5,2.5,0,0,1,4.9,0h8.8a.25.25,0,0,1,.25.25v.5a.25.25,0,0,1-.25.25H7.95a2.5,2.5,0,0,1-4.9,0H1.25A.25.25,0,0,1,1,3.75ZM4,3.5A1.5,1.5,0,1,0,5.5,2,1.5,1.5,0,0,0,4,3.5ZM7.921,13.9805a1.5,1.5,0,1,1,0-.961,5.55014,5.55014,0,0,1,.2825-1.338A2.49,2.49,0,0,0,4.05,13H1.25a.25.25,0,0,0-.25.25v.5a.25.25,0,0,0,.25.25h2.8a2.49,2.49,0,0,0,4.153,1.3185A5.55422,5.55422,0,0,1,7.921,13.9805Z" />
</svg>