<svg xmlns="http://www.w3.org/2000/svg" height="18" viewBox="0 0 18 18" width="18">
  <defs>
    <style>
      .a {
        fill: #6E6E6E;
      }
    </style>
  </defs>
  <title>S Devices 18 N</title>
  <rect id="Canvas" fill="#ff13dc" opacity="0" width="18" height="18" /><path class="a" d="M9,11H3V3H17V2a1,1,0,0,0-1-1H1A1,1,0,0,0,0,2V12a1,1,0,0,0,1,1H9ZM1.5,8.25A1.25,1.25,0,1,1,2.75,7,1.25,1.25,0,0,1,1.5,8.25Z" />
  <path class="a" d="M17,4H11a1,1,0,0,0-1,1V17a1,1,0,0,0,1,1h6a1,1,0,0,0,1-1V5A1,1,0,0,0,17,4ZM13.5,5h1a.5.5,0,0,1,0,1h-1a.5.5,0,0,1,0-1ZM14,17.55a1.05,1.05,0,1,1,1.05-1.05A1.05,1.05,0,0,1,14,17.55ZM17,15H11V7h6Z" />
</svg>