<svg xmlns="http://www.w3.org/2000/svg" height="18" viewBox="0 0 18 18" width="18">
  <defs>
    <style>
      .fill {
        fill: #464646;
      }
    </style>
  </defs>
  <title>S Asterisk 18 N</title>
  <rect id="Canvas" fill="#ff13dc" opacity="0" width="18" height="18" /><path class="fill" d="M14.7925,14.75c.1245.125.2085.292,0,.4585l-2.5835,1.667c-.2085.125-.2915.0415-.3755-.167L8.6255,11.124,4.4165,15.75c-.0415.083-.1665.166-.291,0l-2-2.084c-.2085-.125-.167-.25,0-.3745l4.75-3.959L1.4585,7.29c-.084,0-.2085-.166-.1255-.3745L2.75,4.082A.219.219,0,0,1,3.125,4l4.75,3.0835L8.1675,1a.2195.2195,0,0,1,.25-.25l3.4585.458c.2085,0,.25.0835.2085.292L10.459,7.457l5.5-1.6665c.1245-.0835.25-.0835.333.1665l.542,3.0835c.0415.208,0,.2915-.167.2915l-5.75.4585Z" />
</svg>