<svg xmlns="http://www.w3.org/2000/svg" height="18" viewBox="0 0 18 18" width="18">
  <defs>
    <style>
      .a {
        fill: #6E6E6E;
      }
    </style>
  </defs>
  <title>S Wrench 18 N</title>
  <rect id="Canvas" fill="#ff13dc" opacity="0" width="18" height="18" /><path class="a" d="M16.1175,13.763l-5.689-5.689c-1.811-1.827-.617-4.3-2.335-6.0185C6.617.579,3.7185.9555,3.0575,1.3735a.073.073,0,0,0,.013.1265l3.119,1.55a.18349.18349,0,0,1,.1.15l.145,1.8275a.371.371,0,0,1-.1695.3415l-1.5425.9875a.185.185,0,0,1-.182.0095L1.4,4.804a.07251.07251,0,0,0-.09884.02727L1.294,4.849a5.3388,5.3388,0,0,0,1.562,2.97c1.572,1.572,3.909.7805,4.9555,1.827l5.5635,6.578a1.87913,1.87913,0,0,0,.1975.2335,1.853,1.853,0,0,0,2.75-.142A1.92449,1.92449,0,0,0,16.1175,13.763Z" />
</svg>