<svg width="10935" height="1581" xmlns="http://www.w3.org/2000/svg" xmlns:xlink="http://www.w3.org/1999/xlink" xml:space="preserve" overflow="hidden"><g transform="translate(3345 -655)"><g><path d="M-3342.5 1434.87 7378.91 1434.88 7378.91 1476.13-3342.5 1476.12ZM7378.91 1455.5 7337.66 1393.63 7461.41 1455.5 7337.66 1517.38Z" fill="#000000" fill-rule="nonzero" fill-opacity="1"/><path d="M-3341.5 725.4C-3341.5 689.004-3312 659.5-3275.6 659.5L436.6 659.5C472.996 659.5 502.5 689.004 502.5 725.4L502.5 1252.6C502.5 1289 472.996 1318.5 436.6 1318.5L-3275.6 1318.5C-3312 1318.5-3341.5 1289-3341.5 1252.6Z" stroke="#E97132" stroke-width="6.875" stroke-linecap="butt" stroke-linejoin="miter" stroke-miterlimit="8" stroke-opacity="1" fill="#FFFFFF" fill-rule="evenodd" fill-opacity="1"/><text fill="#000000" fill-opacity="1" font-family="Aptos,Aptos_MSFontService,sans-serif" font-style="normal" font-variant="normal" font-weight="400" font-stretch="normal" font-size="298" text-anchor="start" direction="ltr" writing-mode="lr-tb" unicode-bidi="normal" text-decoration="none" transform="matrix(1 0 0 1 -2168.33 1070)">Admin User</text><path d="M-3341.5 1636.4C-3341.5 1600-3312 1570.5-3275.6 1570.5L-2194.4 1570.5C-2158 1570.5-2128.5 1600-2128.5 1636.4L-2128.5 2163.6C-2128.5 2200-2158 2229.5-2194.4 2229.5L-3275.6 2229.5C-3312 2229.5-3341.5 2200-3341.5 2163.6Z" stroke="#156082" stroke-width="6.875" stroke-linecap="butt" stroke-linejoin="miter" stroke-miterlimit="8" stroke-opacity="1" fill="#FFFFFF" fill-rule="evenodd" fill-opacity="1"/><text fill="#000000" fill-opacity="1" font-family="Aptos,Aptos_MSFontService,sans-serif" font-style="normal" font-variant="normal" font-weight="400" font-stretch="normal" font-size="138" text-anchor="start" direction="ltr" writing-mode="lr-tb" unicode-bidi="normal" text-decoration="none" transform="matrix(1 0 0 1 -3093.22 1785)">Log in to the </text><text fill="#000000" fill-opacity="1" font-family="Aptos,Aptos_MSFontService,sans-serif" font-style="normal" font-variant="normal" font-weight="400" font-stretch="normal" font-size="138" text-anchor="start" direction="ltr" writing-mode="lr-tb" unicode-bidi="normal" text-decoration="none" transform="matrix(1 0 0 1 -3132.85 1936)">Adobe Admin </text><text fill="#000000" fill-opacity="1" font-family="Aptos,Aptos_MSFontService,sans-serif" font-style="normal" font-variant="normal" font-weight="400" font-stretch="normal" font-size="138" text-anchor="start" direction="ltr" writing-mode="lr-tb" unicode-bidi="normal" text-decoration="none" transform="matrix(1 0 0 1 -2983.98 2087)">Console</text><path d="M-2026.5 1636.4C-2026.5 1600-1997 1570.5-1960.6 1570.5L-878.4 1570.5C-842.005 1570.5-812.5 1600-812.5 1636.4L-812.5 2163.6C-812.5 2200-842.005 2229.5-878.4 2229.5L-1960.6 2229.5C-1997 2229.5-2026.5 2200-2026.5 2163.6Z" stroke="#156082" stroke-width="6.875" stroke-linecap="butt" stroke-linejoin="miter" stroke-miterlimit="8" stroke-opacity="1" fill="#FFFFFF" fill-rule="evenodd" fill-opacity="1"/><text fill="#000000" fill-opacity="1" font-family="Aptos,Aptos_MSFontService,sans-serif" font-style="normal" font-variant="normal" font-weight="400" font-stretch="normal" font-size="138" text-anchor="start" direction="ltr" writing-mode="lr-tb" unicode-bidi="normal" text-decoration="none" transform="matrix(1 0 0 1 -1856.28 1861)">Create the FRL </text><text fill="#000000" fill-opacity="1" font-family="Aptos,Aptos_MSFontService,sans-serif" font-style="normal" font-variant="normal" font-weight="400" font-stretch="normal" font-size="138" text-anchor="start" direction="ltr" writing-mode="lr-tb" unicode-bidi="normal" text-decoration="none" transform="matrix(1 0 0 1 -1668.27 2012)">Package</text><path d="M-711.5 1636.4C-711.5 1600-681.995 1570.5-645.6 1570.5L436.6 1570.5C472.995 1570.5 502.5 1600 502.5 1636.4L502.5 2163.6C502.5 2200 472.995 2229.5 436.6 2229.5L-645.6 2229.5C-681.995 2229.5-711.5 2200-711.5 2163.6Z" stroke="#156082" stroke-width="6.875" stroke-linecap="butt" stroke-linejoin="miter" stroke-miterlimit="8" stroke-opacity="1" fill="#FFFFFF" fill-rule="evenodd" fill-opacity="1"/><text fill="#000000" fill-opacity="1" font-family="Aptos,Aptos_MSFontService,sans-serif" font-style="normal" font-variant="normal" font-weight="400" font-stretch="normal" font-size="138" text-anchor="start" direction="ltr" writing-mode="lr-tb" unicode-bidi="normal" text-decoration="none" transform="matrix(1 0 0 1 -633.707 1785)">Provide download </text><text fill="#000000" fill-opacity="1" font-family="Aptos,Aptos_MSFontService,sans-serif" font-style="normal" font-variant="normal" font-weight="400" font-stretch="normal" font-size="138" text-anchor="start" direction="ltr" writing-mode="lr-tb" unicode-bidi="normal" text-decoration="none" transform="matrix(1 0 0 1 -544.126 1936)">permissions to </text><text fill="#000000" fill-opacity="1" font-family="Aptos,Aptos_MSFontService,sans-serif" font-style="normal" font-variant="normal" font-weight="400" font-stretch="normal" font-size="138" text-anchor="start" direction="ltr" writing-mode="lr-tb" unicode-bidi="normal" text-decoration="none" transform="matrix(1 0 0 1 -621.539 2087)">Deployment User</text><path d="M705.5 725.402C705.5 689.006 735.005 659.5 771.402 659.5L7322.6 659.5C7359 659.5 7388.5 689.006 7388.5 725.402L7388.5 1252.6C7388.5 1288.99 7359 1318.5 7322.6 1318.5L771.402 1318.5C735.005 1318.5 705.5 1288.99 705.5 1252.6Z" stroke="#E97132" stroke-width="6.875" stroke-linecap="butt" stroke-linejoin="miter" stroke-miterlimit="8" stroke-opacity="1" fill="#FFFFFF" fill-rule="evenodd" fill-opacity="1"/><text fill="#000000" fill-opacity="1" font-family="Aptos,Aptos_MSFontService,sans-serif" font-style="normal" font-variant="normal" font-weight="400" font-stretch="normal" font-size="298" text-anchor="start" direction="ltr" writing-mode="lr-tb" unicode-bidi="normal" text-decoration="none" transform="matrix(1 0 0 1 2927.42 1070)">Deployment User</text><path d="M810.5 1636.4C810.5 1600 840.005 1570.5 876.401 1570.5L1957.6 1570.5C1994 1570.5 2023.5 1600 2023.5 1636.4L2023.5 2163.6C2023.5 2200 1994 2229.5 1957.6 2229.5L876.401 2229.5C840.005 2229.5 810.5 2200 810.5 2163.6Z" stroke="#156082" stroke-width="6.875" stroke-linecap="butt" stroke-linejoin="miter" stroke-miterlimit="8" stroke-opacity="1" fill="#FFFFFF" fill-rule="evenodd" fill-opacity="1"/><text fill="#000000" fill-opacity="1" font-family="Aptos,Aptos_MSFontService,sans-serif" font-style="normal" font-variant="normal" font-weight="400" font-stretch="normal" font-size="138" text-anchor="start" direction="ltr" writing-mode="lr-tb" unicode-bidi="normal" text-decoration="none" transform="matrix(1 0 0 1 911.323 1861)">Uninstall existing </text><text fill="#000000" fill-opacity="1" font-family="Aptos,Aptos_MSFontService,sans-serif" font-style="normal" font-variant="normal" font-weight="400" font-stretch="normal" font-size="138" text-anchor="start" direction="ltr" writing-mode="lr-tb" unicode-bidi="normal" text-decoration="none" transform="matrix(1 0 0 1 977.438 2012)">Adobe Acrobat</text><path d="M2125.5 1636.4C2125.5 1600 2155 1570.5 2191.4 1570.5L3272.6 1570.5C3309 1570.5 3338.5 1600 3338.5 1636.4L3338.5 2163.6C3338.5 2200 3309 2229.5 3272.6 2229.5L2191.4 2229.5C2155 2229.5 2125.5 2200 2125.5 2163.6Z" stroke="#156082" stroke-width="6.875" stroke-linecap="butt" stroke-linejoin="miter" stroke-miterlimit="8" stroke-opacity="1" fill="#FFFFFF" fill-rule="evenodd" fill-opacity="1"/><text fill="#000000" fill-opacity="1" font-family="Aptos,Aptos_MSFontService,sans-serif" font-style="normal" font-variant="normal" font-weight="400" font-stretch="normal" font-size="138" text-anchor="start" direction="ltr" writing-mode="lr-tb" unicode-bidi="normal" text-decoration="none" transform="matrix(1 0 0 1 2362.7 1861)">Open Adobe </text><text fill="#000000" fill-opacity="1" font-family="Aptos,Aptos_MSFontService,sans-serif" font-style="normal" font-variant="normal" font-weight="400" font-stretch="normal" font-size="138" text-anchor="start" direction="ltr" writing-mode="lr-tb" unicode-bidi="normal" text-decoration="none" transform="matrix(1 0 0 1 2276.63 2012)">Admin Console</text><path d="M3440.5 1636.4C3440.5 1600 3470 1570.5 3506.4 1570.5L4587.6 1570.5C4624 1570.5 4653.5 1600 4653.5 1636.4L4653.5 2163.6C4653.5 2200 4624 2229.5 4587.6 2229.5L3506.4 2229.5C3470 2229.5 3440.5 2200 3440.5 2163.6Z" stroke="#156082" stroke-width="6.875" stroke-linecap="butt" stroke-linejoin="miter" stroke-miterlimit="8" stroke-opacity="1" fill="#FFFFFF" fill-rule="evenodd" fill-opacity="1"/><text fill="#000000" fill-opacity="1" font-family="Aptos,Aptos_MSFontService,sans-serif" font-style="normal" font-variant="normal" font-weight="400" font-stretch="normal" font-size="138" text-anchor="start" direction="ltr" writing-mode="lr-tb" unicode-bidi="normal" text-decoration="none" transform="matrix(1 0 0 1 3507.45 1861)">Download the FRL </text><text fill="#000000" fill-opacity="1" font-family="Aptos,Aptos_MSFontService,sans-serif" font-style="normal" font-variant="normal" font-weight="400" font-stretch="normal" font-size="138" text-anchor="start" direction="ltr" writing-mode="lr-tb" unicode-bidi="normal" text-decoration="none" transform="matrix(1 0 0 1 3798.33 2012)">Package</text><path d="M4755.5 1636.4C4755.5 1600 4785 1570.5 4821.4 1570.5L5902.6 1570.5C5939 1570.5 5968.5 1600 5968.5 1636.4L5968.5 2163.6C5968.5 2200 5939 2229.5 5902.6 2229.5L4821.4 2229.5C4785 2229.5 4755.5 2200 4755.5 2163.6Z" stroke="#156082" stroke-width="6.875" stroke-linecap="butt" stroke-linejoin="miter" stroke-miterlimit="8" stroke-opacity="1" fill="#FFFFFF" fill-rule="evenodd" fill-opacity="1"/><text fill="#000000" fill-opacity="1" font-family="Aptos,Aptos_MSFontService,sans-serif" font-style="normal" font-variant="normal" font-weight="400" font-stretch="normal" font-size="138" text-anchor="start" direction="ltr" writing-mode="lr-tb" unicode-bidi="normal" text-decoration="none" transform="matrix(1 0 0 1 4917.06 1861)">Deploy the FRL </text><text fill="#000000" fill-opacity="1" font-family="Aptos,Aptos_MSFontService,sans-serif" font-style="normal" font-variant="normal" font-weight="400" font-stretch="normal" font-size="138" text-anchor="start" direction="ltr" writing-mode="lr-tb" unicode-bidi="normal" text-decoration="none" transform="matrix(1 0 0 1 5113.37 2012)">Package</text><path d="M6070.5 1636.4C6070.5 1600 6100 1570.5 6136.4 1570.5L7217.6 1570.5C7254 1570.5 7283.5 1600 7283.5 1636.4L7283.5 2163.6C7283.5 2200 7254 2229.5 7217.6 2229.5L6136.4 2229.5C6100 2229.5 6070.5 2200 6070.5 2163.6Z" stroke="#156082" stroke-width="6.875" stroke-linecap="butt" stroke-linejoin="miter" stroke-miterlimit="8" stroke-opacity="1" fill="#FFFFFF" fill-rule="evenodd" fill-opacity="1"/><text fill="#000000" fill-opacity="1" font-family="Aptos,Aptos_MSFontService,sans-serif" font-style="normal" font-variant="normal" font-weight="400" font-stretch="normal" font-size="138" text-anchor="start" direction="ltr" writing-mode="lr-tb" unicode-bidi="normal" text-decoration="none" transform="matrix(1 0 0 1 6420.94 1861)">Test PDF </text><text fill="#000000" fill-opacity="1" font-family="Aptos,Aptos_MSFontService,sans-serif" font-style="normal" font-variant="normal" font-weight="400" font-stretch="normal" font-size="138" text-anchor="start" direction="ltr" writing-mode="lr-tb" unicode-bidi="normal" text-decoration="none" transform="matrix(1 0 0 1 6144.93 2012)">Generator Service</text></g></g></svg>