<svg width="1280" height="720" xmlns="http://www.w3.org/2000/svg" xmlns:xlink="http://www.w3.org/1999/xlink" overflow="hidden"><defs><clipPath id="clip0"><rect x="0" y="0" width="1280" height="720"/></clipPath></defs><g clip-path="url(#clip0)"><rect x="0" y="0" width="1280" height="720" fill="#FFFFFF"/><path d="M9.50005 324C9.50005 317.649 14.6487 312.5 20.9999 312.5L189 312.5C195.351 312.5 200.5 317.649 200.5 324L200.5 416C200.5 422.351 195.351 427.5 189 427.5L20.9999 427.5C14.6487 427.5 9.50005 422.351 9.50005 416Z" stroke="#000000" stroke-width="1.33333" stroke-miterlimit="8" fill="#FFFFFF" fill-rule="evenodd"/><text font-family="Calibri,Calibri_MSFontService,sans-serif" font-weight="400" font-size="24" transform="translate(22.4241 350)">Backup your CRX</text><text font-family="Calibri,Calibri_MSFontService,sans-serif" font-weight="400" font-size="24" transform="translate(33.3375 376)">Repository, DB</text><text font-family="Calibri,Calibri_MSFontService,sans-serif" font-weight="400" font-size="24" transform="translate(21.9175 403)">Schema and GDS</text><path d="M219 355.6 239.5 355.6 239.5 346 260 370 239.5 394 239.5 384.4 219 384.4Z" fill="#AAAAAA" fill-rule="evenodd"/><path d="M277.5 324C277.5 317.649 282.649 312.5 289 312.5L457 312.5C463.351 312.5 468.5 317.649 468.5 324L468.5 416C468.5 422.351 463.351 427.5 457 427.5L289 427.5C282.649 427.5 277.5 422.351 277.5 416Z" stroke="#000000" stroke-width="1.33333" stroke-miterlimit="8" fill="#FFFFFF" fill-rule="evenodd"/><text font-family="Calibri,Calibri_MSFontService,sans-serif" font-weight="400" font-size="24" transform="translate(317.635 350)">Install AEM</text><text font-family="Calibri,Calibri_MSFontService,sans-serif" font-weight="400" font-size="24" transform="translate(324.029 376)">Forms JEE</text><text font-family="Calibri,Calibri_MSFontService,sans-serif" font-weight="400" font-size="24" transform="translate(312.502 403)">Service Pack</text><path d="M487 355.6 507.5 355.6 507.5 346 528 370 507.5 394 507.5 384.4 487 384.4Z" fill="#AAAAAA" fill-rule="evenodd"/><path d="M545.5 324C545.5 317.649 550.649 312.5 557 312.5L725 312.5C731.351 312.5 736.5 317.649 736.5 324L736.5 416C736.5 422.351 731.351 427.5 725 427.5L557 427.5C550.649 427.5 545.5 422.351 545.5 416Z" stroke="#000000" stroke-width="1.33333" stroke-miterlimit="8" fill="#FFFFFF" fill-rule="evenodd"/><text font-family="Calibri,Calibri_MSFontService,sans-serif" font-weight="400" font-size="24" transform="translate(562.157 363)">Install Fragment</text><text font-family="Calibri,Calibri_MSFontService,sans-serif" font-weight="400" font-size="24" transform="translate(607.997 389)">jar File</text><path d="M755 355.6 775.5 355.6 775.5 346 796 370 775.5 394 775.5 384.4 755 384.4Z" fill="#AAAAAA" fill-rule="evenodd"/><path d="M813.5 324C813.5 317.649 818.649 312.5 825 312.5L993 312.5C999.351 312.5 1004.5 317.649 1004.5 324L1004.5 416C1004.5 422.351 999.351 427.5 993 427.5L825 427.5C818.649 427.5 813.5 422.351 813.5 416Z" stroke="#000000" stroke-width="1.33333" stroke-miterlimit="8" fill="#FFFFFF" fill-rule="evenodd"/><text font-family="Calibri,Calibri_MSFontService,sans-serif" font-weight="400" font-size="24" transform="translate(853.778 350)">Install AEM</text><text font-family="Calibri,Calibri_MSFontService,sans-serif" font-weight="400" font-size="24" transform="translate(840.724 376)">Forms Service</text><text font-family="Calibri,Calibri_MSFontService,sans-serif" font-weight="400" font-size="24" transform="translate(886.351 403)">Pack</text><path d="M1023 355.6 1043.5 355.6 1043.5 346 1064 370 1043.5 394 1043.5 384.4 1023 384.4Z" fill="#AAAAAA" fill-rule="evenodd"/><path d="M1081.5 324C1081.5 317.649 1086.65 312.5 1093 312.5L1261 312.5C1267.35 312.5 1272.5 317.649 1272.5 324L1272.5 416C1272.5 422.351 1267.35 427.5 1261 427.5L1093 427.5C1086.65 427.5 1081.5 422.351 1081.5 416Z" stroke="#000000" stroke-width="1.33333" stroke-miterlimit="8" fill="#FFFFFF" fill-rule="evenodd"/><text font-family="Calibri,Calibri_MSFontService,sans-serif" font-weight="400" font-size="24" transform="translate(1121.85 350)">Install AEM</text><text font-family="Calibri,Calibri_MSFontService,sans-serif" font-weight="400" font-size="24" transform="translate(1107.94 376)">Forms Add</text><text font-family="Calibri,Calibri_MSFontService,sans-serif" font-weight="400" font-size="24" transform="translate(1212.74 376)">-</text><text font-family="Calibri,Calibri_MSFontService,sans-serif" font-weight="400" font-size="24" transform="translate(1220.09 376)">on</text><text font-family="Calibri,Calibri_MSFontService,sans-serif" font-weight="400" font-size="24" transform="translate(1137.36 403)">Package</text></g></svg>