<svg xmlns="https://www.w3.org/2000/svg" height="18" viewBox="0 0 18 18" width="18">
  <defs>
    <style>
      .a {
        fill: #6E6E6E;
      }
    </style>
  </defs>
  <title>S Maximize 18 N</title>
  <rect id="Canvas" fill="#ff13dc" opacity="0" width="18" height="18" /><path class="a" d="M7.0385,10.3535a.5.5,0,0,0-.707,0l-3.242,3.242L1.6,12.103A.344.344,0,0,0,1.3525,12a.35.35,0,0,0-.35.35v4.42a.25.25,0,0,0,.227.23H5.65A.35.35,0,0,0,6,16.65a.34252.34252,0,0,0-.1035-.245l-1.492-1.4945,3.242-3.242a.5.5,0,0,0,0-.707Z" />
  <path class="a" d="M16.7705,1H12.35a.35.35,0,0,0-.35.35V1.3525a.34253.34253,0,0,0,.1035.245l1.492,1.492-3.242,3.242a.5.5,0,0,0,0,.707l.608.608a.5.5,0,0,0,.707,0l3.242-3.242,1.492,1.4925A.344.344,0,0,0,16.65,6,.35.35,0,0,0,17,5.65h0V1.2295A.25.25,0,0,0,16.7705,1Z" />
</svg>