<svg width="1280" height="720" xmlns="http://www.w3.org/2000/svg" xmlns:xlink="http://www.w3.org/1999/xlink" overflow="hidden"><defs><clipPath id="clip0"><rect x="0" y="0" width="1280" height="720"/></clipPath></defs><g clip-path="url(#clip0)"><rect x="0" y="0" width="1280" height="720" fill="#FFFFFF"/><path d="M189.5 97.6001C189.5 90.9174 194.917 85.5001 201.6 85.5001L378.4 85.5001C385.083 85.5001 390.5 90.9174 390.5 97.6001L390.5 194.4C390.5 201.083 385.083 206.5 378.4 206.5L201.6 206.5C194.917 206.5 189.5 201.083 189.5 194.4Z" stroke="#000000" stroke-width="1.33333" stroke-miterlimit="8" fill="#FFFFFF" fill-rule="evenodd"/><text font-family="Calibri,Calibri_MSFontService,sans-serif" font-weight="400" font-size="24" transform="translate(207.352 126)">Backup your CRX</text><text font-family="Calibri,Calibri_MSFontService,sans-serif" font-weight="400" font-size="24" transform="translate(215.966 152)">Repository and</text><text font-family="Calibri,Calibri_MSFontService,sans-serif" font-weight="400" font-size="24" transform="translate(234.472 179)">DB</text><text font-family="Calibri,Calibri_MSFontService,sans-serif" font-weight="400" font-size="24" transform="translate(267.719 179)">Schema</text><path d="M410 130 431.5 130 431.5 120 453 145 431.5 170 431.5 160 410 160Z" fill="#AAAAAA" fill-rule="evenodd"/><path d="M470.5 97.6C470.5 90.9174 475.917 85.5001 482.6 85.5001L660.4 85.5001C667.083 85.5001 672.5 90.9174 672.5 97.6L672.5 194.4C672.5 201.083 667.083 206.5 660.4 206.5L482.6 206.5C475.917 206.5 470.5 201.083 470.5 194.4Z" stroke="#000000" stroke-width="1.33333" stroke-miterlimit="8" fill="#FFFFFF" fill-rule="evenodd"/><text font-family="Calibri,Calibri_MSFontService,sans-serif" font-weight="400" font-size="24" transform="translate(483.357 139)">Install AEM Forms</text><text font-family="Calibri,Calibri_MSFontService,sans-serif" font-weight="400" font-size="24" transform="translate(511.07 165)">Service Pack</text><path d="M692 130 713 130 713 120 734 145 713 170 713 160 692 160Z" fill="#AAAAAA" fill-rule="evenodd"/><path d="M752.5 97.6001C752.5 90.9174 757.917 85.5001 764.6 85.5001L941.4 85.5001C948.083 85.5001 953.5 90.9174 953.5 97.6001L953.5 194.4C953.5 201.083 948.083 206.5 941.4 206.5L764.6 206.5C757.917 206.5 752.5 201.083 752.5 194.4Z" stroke="#000000" stroke-width="1.33333" stroke-miterlimit="8" fill="#FFFFFF" fill-rule="evenodd"/><text font-family="Calibri,Calibri_MSFontService,sans-serif" font-weight="400" font-size="24" transform="translate(765.071 139)">Install AEM Forms</text><text font-family="Calibri,Calibri_MSFontService,sans-serif" font-weight="400" font-size="24" transform="translate(774.864 165)">Add</text><text font-family="Calibri,Calibri_MSFontService,sans-serif" font-weight="400" font-size="24" transform="translate(813.964 165)">-</text><text font-family="Calibri,Calibri_MSFontService,sans-serif" font-weight="400" font-size="24" transform="translate(821.311 165)">on Package</text></g></svg>