<svg xmlns="http://www.w3.org/2000/svg" height="18" viewBox="0 0 18 18" width="18">
  <defs>
    <style>
      .fill {
        fill: #464646;
      }
    </style>
  </defs>
  <title>S Properties 18 N</title>
  <rect id="Canvas" fill="#ff13dc" opacity="0" width="18" height="18" /><path class="fill" d="M16.75,3H7.95a2.5,2.5,0,0,0-4.9,0H1.25A.25.25,0,0,0,1,3.25v.5A.25.25,0,0,0,1.25,4h1.8a2.5,2.5,0,0,0,4.9,0h8.8A.25.25,0,0,0,17,3.75v-.5A.25.25,0,0,0,16.75,3ZM5.5,5A1.5,1.5,0,1,1,7,3.5,1.5,1.5,0,0,1,5.5,5Z" />
  <path class="fill" d="M16.75,13H9.95a2.5,2.5,0,0,0-4.9,0H1.25a.25.25,0,0,0-.25.25v.5a.25.25,0,0,0,.25.25h3.8a2.5,2.5,0,0,0,4.9,0h6.8a.25.25,0,0,0,.25-.25v-.5A.25.25,0,0,0,16.75,13ZM7.5,15A1.5,1.5,0,1,1,9,13.5,1.5,1.5,0,0,1,7.5,15Z" />
  <path class="fill" d="M1,8.25v.5A.25.25,0,0,0,1.25,9h8.8a2.5,2.5,0,0,0,4.9,0h1.8A.25.25,0,0,0,17,8.75v-.5A.25.25,0,0,0,16.75,8h-1.8a2.5,2.5,0,0,0-4.9,0H1.25A.25.25,0,0,0,1,8.25ZM11,8.5A1.5,1.5,0,1,1,12.5,10,1.5,1.5,0,0,1,11,8.5Z" />
</svg>