<svg xmlns="http://www.w3.org/2000/svg" height="18" viewBox="0 0 18 18" width="18">
  <defs>
    <style>
      .fill {
        fill: #464646;
      }
    </style>
  </defs>
  <title>S FeedManagement 18 N</title>
  <rect id="Canvas" fill="#ff13dc" opacity="0" width="18" height="18" /><path class="fill" d="M7.37,14H3V11H7.88a6.12814,6.12814,0,0,1,.563-1H3V7H15v.5345a6.108,6.108,0,0,1,1,.345V2.5a.5.5,0,0,0-.5-.5H2.5a.5.5,0,0,0-.5.5v12a.5.5,0,0,0,.5.5H7.5345A6.12349,6.12349,0,0,1,7.37,14ZM3,3H15V6H3Z" />
  <path class="fill" d="M17.5965,12.893H16.534a3.0709,3.0709,0,0,0-.45-1.0895l.7565-.7565a.3035.3035,0,0,0,0-.429l-.46-.46a.3035.3035,0,0,0-.429,0l-.7555.757a3.073,3.073,0,0,0-1.089-.45V9.4035A.3035.3035,0,0,0,13.8035,9.1h-.607a.3035.3035,0,0,0-.3035.3035V10.466a3.07263,3.07263,0,0,0-1.089.45l-.7565-.7565a.3035.3035,0,0,0-.429,0l-.46.46a.3035.3035,0,0,0,0,.429l.7565.7565a3.07152,3.07152,0,0,0-.45,1.0895H9.4035A.3035.3035,0,0,0,9.1,13.198v.607a.3035.3035,0,0,0,.3035.3035H10.466a3.0716,3.0716,0,0,0,.45,1.0895l-.7565.7565a.3035.3035,0,0,0,0,.429l.46.46a.3035.3035,0,0,0,.429,0l.7565-.7565a3.07263,3.07263,0,0,0,1.089.45v1.0625a.3035.3035,0,0,0,.3035.3035h.607a.3035.3035,0,0,0,.3035-.3035V16.534a3.07263,3.07263,0,0,0,1.089-.45l.7565.7565a.3035.3035,0,0,0,.429,0l.46-.46a.3035.3035,0,0,0,0-.429l-.7575-.7555a3.0709,3.0709,0,0,0,.45-1.0895h1.0625a.3035.3035,0,0,0,.3035-.3035v-.6065a.3035.3035,0,0,0-.3035-.3035ZM13.5,15.25a1.75,1.75,0,1,1,1.75-1.75A1.75,1.75,0,0,1,13.5,15.25Z" />
</svg>