<svg xmlns="http://www.w3.org/2000/svg" height="18" viewBox="0 0 18 18" width="18">
  <defs>
    <style>
      .fill {
        fill: #464646;
      }
    </style>
  </defs>
  <title>S FilingCabinet 18 N</title>
  <rect id="Canvas" fill="#ff13dc" opacity="0" width="18" height="18" /><path class="fill" d="M15.5,1H2.5a.5.5,0,0,0-.5.5v12a.5.5,0,0,0,.5.5H4v1.5a.5.5,0,0,0,.5.5h1a.5.5,0,0,0,.5-.5V14h6v1.5a.5.5,0,0,0,.5.5h1a.5.5,0,0,0,.5-.5V14h1.5a.5.5,0,0,0,.5-.5V1.5A.5.5,0,0,0,15.5,1ZM15,13H3V8H15ZM3,7V2H15V7Z" />
  <circle class="fill" cx="9" cy="5" r="1" />
  <circle class="fill" cx="9" cy="10" r="1" />
</svg>