<svg id="Ungroup_18" xmlns="https://www.w3.org/2000/svg" width="648" height="648" viewBox="0 0 648 648">
  <title>Ungroup_18</title>
  <rect x="369" y="369" width="126" height="126" rx="18" ry="18"/>
  <path d="M639,324a9,9,0,0,0,9-9V225a9,9,0,0,0-9-9H549a9,9,0,0,0-9,9v27H324V225a9,9,0,0,0-9-9H225a9,9,0,0,0-9,9v90a9,9,0,0,0,9,9h27V540H225a9,9,0,0,0-9,9v90a9,9,0,0,0,9,9h90a9,9,0,0,0,9-9V612H540v27a9,9,0,0,0,9,9h90a9,9,0,0,0,9-9V549a9,9,0,0,0-9-9H612V324h27ZM576,540H549a9,9,0,0,0-9,9v27H324V549a9,9,0,0,0-9-9H288V324h27a9,9,0,0,0,9-9V288H540v27a9,9,0,0,0,9,9h27V540Z" transform="translate(0 0)"/>
  <path d="M180,198a18,18,0,0,1,18-18h81v-9a18,18,0,0,0-18-18H171a18,18,0,0,0-18,18v90a18,18,0,0,0,18,18h9V198Z" transform="translate(0 0)"/>
  <path d="M180,360H108V333a8.995,8.995,0,0,0-9-9H72V108H99a8.995,8.995,0,0,0,9-9V72H324V99a8.995,8.995,0,0,0,9,9h27v72h36V108h27a8.995,8.995,0,0,0,9-9V9a8.995,8.995,0,0,0-9-9H333a8.995,8.995,0,0,0-9,9V36H108V9a8.995,8.995,0,0,0-9-9H9A8.995,8.995,0,0,0,0,9V99a8.995,8.995,0,0,0,9,9H36V324H9a8.995,8.995,0,0,0-9,9v90a8.995,8.995,0,0,0,9,9H99a8.995,8.995,0,0,0,9-9V396h72V360Z" transform="translate(0 0)"/>
  </svg>